<svg xmlns="http://www.w3.org/2000/svg" data-name="Layer 1" viewBox="0 0 100 100" x="0px" y="0px"><title>A</title><path d="M50,5C25.18652,5,5,23.04483,5,45.225S25.18652,85.45048,50,85.45048a50.11364,50.11364,0,0,0,11.125-1.24759L76.6875,94.26512a4.5863,4.5863,0,0,0,7.0752-3.80477l.21093-18.85685A37.70021,37.70021,0,0,0,95,45.225C95,23.04483,74.81348,5,50,5ZM78.06836,67.60341l-1.06152,1.01711-.19532,17.38954L62.36621,76.66952l-1.49023.38917A43.08186,43.08186,0,0,1,50,78.45032c-20.95312,0-38-14.90462-38-33.22533,0-18.32022,17.04688-33.22484,38-33.22484S88,26.90477,88,45.225A30.948,30.948,0,0,1,78.06836,67.60341Z"/><path d="M70.66382,39.80679a5.41818,5.41818,0,1,0,5.418,5.4182A5.41809,5.41809,0,0,0,70.66382,39.80679Z"/><circle cx="50" cy="45.22498" r="5.41807"/><path d="M29.33618,39.80679a5.41818,5.41818,0,1,0,5.41809,5.4182A5.41814,5.41814,0,0,0,29.33618,39.80679Z"/><text x="0" y="115" fill="#000000" font-size="5px" font-weight="bold" font-family="'Helvetica Neue', Helvetica, Arial-Unicode, Arial, Sans-serif">Created by Markus</text><text x="0" y="120" fill="#000000" font-size="5px" font-weight="bold" font-family="'Helvetica Neue', Helvetica, Arial-Unicode, Arial, Sans-serif">from the Noun Project</text></svg>