<svg xmlns="http://www.w3.org/2000/svg" version="1.1" xmlns:xlink="http://www.w3.org/1999/xlink" xmlns:svgjs="http://svgjs.dev/svgjs" width="1000" height="260" viewBox="0 0 1000 260"><g transform="matrix(1,0,0,1,-0.6060362364982552,-0.4356348108295549)"><svg viewBox="0 0 396 103" data-background-color="#ffffff" preserveAspectRatio="xMidYMid meet" height="260" width="1000" xmlns="http://www.w3.org/2000/svg" xmlns:xlink="http://www.w3.org/1999/xlink"><g id="tight-bounds" transform="matrix(1,0,0,1,0.23999070444546078,0.17257840582863082)"><svg viewBox="0 0 395.52 102.65484318834277" height="102.65484318834277" width="395.52"><g><svg viewBox="0 0 395.52 102.65484318834277" height="102.65484318834277" width="395.52"><g><svg viewBox="0 0 395.52 102.65484318834277" height="102.65484318834277" width="395.52"><g id="textblocktransform"><svg viewBox="0 0 395.52 102.65484318834277" height="102.65484318834277" width="395.52" id="textblock"><g><svg viewBox="0 0 395.52 65.1915165765342" height="65.1915165765342" width="395.52"><g transform="matrix(1,0,0,1,0,0)"><svg width="395.52" viewBox="4.550000190734863 -35 212.62998962402344 35.04999923706055" height="65.1915165765342" data-palette-color="#000000"><path d="M8.3-35L8.3 0 4.55 0 4.55-35 8.3-35ZM42.25-35L42.25 0.05 38.15 0.05 21.3-28 21.3 0 17.4 0 17.4-35 21.3-35 38.5-5.9 38.5-35 42.25-35ZM51.35-35L70.25-35 70.25-31.75 55.1-31.75 55.1-20.65 69.05-20.65 69.05-17.3 55.1-17.3 55.1 0 51.35 0 51.35-35ZM80.59-35L80.59 0 76.84 0 76.84-35 80.59-35ZM114.54-35L114.54 0.05 110.44 0.05 93.59-28 93.59 0 89.69 0 89.69-35 93.59-35 110.79-5.9 110.79-35 114.54-35ZM127.39-35L127.39 0 123.64 0 123.64-35 127.39-35ZM161.34-35L161.34 0.05 157.24 0.05 140.39-28 140.39 0 136.49 0 136.49-35 140.39-35 157.59-5.9 157.59-35 161.34-35ZM189.28-3.25L189.28 0 170.43 0 170.43-35 189.28-35 189.28-31.75 174.18-31.75 174.18-20.65 188.03-20.65 188.03-17.3 174.18-17.3 174.18-3.25 189.28-3.25ZM207.48 0L203.78 0 203.78-31.65 193.98-31.65 193.98-35 217.18-35 217.18-31.65 207.48-31.65 207.48 0Z" opacity="1" transform="matrix(1,0,0,1,0,0)" fill="#000000" class="wordmark-text-0" data-fill-palette-color="primary" id="text-0"></path></svg></g></svg></g><g transform="matrix(1,0,0,1,0,80.58166904385608)"><svg viewBox="0 0 232.209792 22.07317414448669" height="22.07317414448669" width="232.209792"><g transform="matrix(1,0,0,1,0,0)"><svg width="232.209792" viewBox="3.0999999046325684 -37.5 525.9200439453125 50" height="22.07317414448669" data-palette-color="#61777f"><path d="M18.05 0L6.7 0Q5.2 0 4.15-1.05 3.1-2.1 3.1-3.6L3.1-3.6 3.1-35 7.75-35 7.75-6.4Q7.75-5.7 8.28-5.18 8.8-4.65 9.55-4.65L9.55-4.65 15.2-4.65Q15.95-4.65 16.48-5.18 17-5.7 17-6.4L17-6.4 17-35 21.65-35 21.65-3.6Q21.65-2.1 20.6-1.05 19.55 0 18.05 0L18.05 0ZM32.15 0L27.45 0 27.45-25 37.9-25Q39.35-25 40.45-23.95 41.55-22.9 41.55-21.4L41.55-21.4 41.55 0 36.85 0 36.85-18.5Q36.85-19.3 36.3-19.8 35.75-20.3 35.05-20.3L35.05-20.3 32.15-20.3 32.15 0ZM49.95-32.8L45.25-31.7 45.25-36.4 49.95-37.5 49.95-32.8ZM50.05 0L45.35 0 45.35-23.9 50.05-25 50.05 0ZM58.74 0L54.04 0 54.04-36.4 58.74-37.45 58.74-25 64.69-25 63.59-20.3 58.74-20.3 58.74 0ZM70.89-32.8L66.19-31.7 66.19-36.4 70.89-37.5 70.89-32.8ZM70.99 0L66.29 0 66.29-23.9 70.99-25 70.99 0ZM78.89 0L74.19 0 74.19-25 84.64-25Q86.09-25 87.19-23.95 88.29-22.9 88.29-21.4L88.29-21.4 88.29 0 83.59 0 83.59-18.5Q83.59-19.3 83.04-19.8 82.49-20.3 81.79-20.3L81.79-20.3 78.89-20.3 78.89 0ZM101.94 12.5L95.14 12.5Q93.69 12.5 92.59 11.45 91.49 10.4 91.49 8.85L91.49 8.85 91.49 3.4 96.19 4.5 96.19 6Q96.19 6.7 96.74 7.25 97.29 7.8 97.99 7.8L97.99 7.8 99.09 7.8Q99.89 7.8 100.39 7.25 100.89 6.7 100.89 6L100.89 6 100.89 0 95.14 0Q93.69 0 92.59-1.05 91.49-2.1 91.49-3.65L91.49-3.65 91.49-21.35Q91.49-22.9 92.59-23.95 93.69-25 95.14-25L95.14-25 105.59-25 105.59 8.85Q105.59 10.4 104.54 11.45 103.49 12.5 101.94 12.5L101.94 12.5ZM97.99-4.7L97.99-4.7 99.09-4.7Q99.89-4.7 100.39-5.25 100.89-5.8 100.89-6.5L100.89-6.5 100.89-20.3 97.99-20.3Q97.29-20.3 96.74-19.8 96.19-19.3 96.19-18.5L96.19-18.5 96.19-6.5Q96.19-5.8 96.74-5.25 97.29-4.7 97.99-4.7ZM129.08 0L124.43 0 124.43-30.35 117.48-30.35 117.48-35 136.03-35 136.03-30.35 129.08-30.35 129.08 0ZM148.53 0L138.08 0Q136.58 0 135.5-1.05 134.43-2.1 134.43-3.65L134.43-3.65 134.43-11.2Q134.43-12.7 135.5-13.78 136.58-14.85 138.08-14.85L138.08-14.85 141.98-14.85Q142.78-14.85 143.3-15.38 143.83-15.9 143.83-16.65L143.83-16.65 143.83-18.5Q143.83-19.25 143.3-19.78 142.78-20.3 141.98-20.3L141.98-20.3 136.58-20.3 137.63-25 144.88-25Q146.38-25 147.45-23.93 148.53-22.85 148.53-21.35L148.53-21.35 148.53 0ZM140.93-4.7L140.93-4.7 143.83-4.7 143.83-10.15 140.93-10.15Q140.18-10.15 139.65-9.63 139.13-9.1 139.13-8.35L139.13-8.35 139.13-6.5Q139.13-5.75 139.65-5.23 140.18-4.7 140.93-4.7ZM156.72 0L152.03 0 152.03-36.35 156.72-37.4 156.72 0ZM174.32 0L163.87 0Q162.37 0 161.3-1.07 160.22-2.15 160.22-3.65L160.22-3.65 160.22-21.4Q160.22-22.9 161.3-23.95 162.37-25 163.87-25L163.87-25 170.67-25Q172.22-25 173.27-23.95 174.32-22.9 174.32-21.4L174.32-21.4 174.32-13.8Q174.32-12.3 173.27-11.23 172.22-10.15 170.67-10.15L170.67-10.15 164.92-10.15 164.92-6.5Q164.92-5.75 165.45-5.23 165.97-4.7 166.77-4.7L166.77-4.7 173.27-4.7 174.32 0ZM164.92-18.5L164.92-14.85 167.82-14.85Q168.57-14.85 169.1-15.38 169.62-15.9 169.62-16.65L169.62-16.65 169.62-18.5Q169.62-19.25 169.1-19.78 168.57-20.3 167.82-20.3L167.82-20.3 166.77-20.3Q165.97-20.3 165.45-19.78 164.92-19.25 164.92-18.5L164.92-18.5ZM182.22 0L177.52 0 177.52-25 187.97-25Q189.42-25 190.52-23.95 191.62-22.9 191.62-21.4L191.62-21.4 191.62 0 186.92 0 186.92-18.5Q186.92-19.3 186.37-19.8 185.82-20.3 185.12-20.3L185.12-20.3 182.22-20.3 182.22 0ZM199.52 0L194.82 0 194.82-36.4 199.52-37.45 199.52-25 205.47-25 204.37-20.3 199.52-20.3 199.52 0ZM217.41 0L210.56 0Q209.06 0 208.02-1.07 206.97-2.15 206.97-3.65L206.97-3.65 206.97-7.8 211.62-7.8 211.62-6.5Q211.62-5.75 212.16-5.23 212.72-4.7 213.47-4.7L213.47-4.7 214.52-4.7Q215.27-4.7 215.79-5.23 216.31-5.75 216.31-6.5L216.31-6.5 216.31-8.35Q216.31-9.1 215.79-9.63 215.27-10.15 214.52-10.15L214.52-10.15 210.56-10.15Q209.06-10.15 208.02-11.23 206.97-12.3 206.97-13.8L206.97-13.8 206.97-21.35Q206.97-22.85 208.02-23.93 209.06-25 210.56-25L210.56-25 217.41-25Q218.91-25 219.97-23.93 221.02-22.85 221.02-21.35L221.02-21.35 221.02-17.2 216.31-17.2 216.31-18.5Q216.31-19.25 215.79-19.78 215.27-20.3 214.52-20.3L214.52-20.3 213.47-20.3Q212.72-20.3 212.16-19.78 211.62-19.25 211.62-18.5L211.62-18.5 211.62-16.65Q211.62-15.9 212.16-15.38 212.72-14.85 213.47-14.85L213.47-14.85 217.41-14.85Q218.91-14.85 219.97-13.78 221.02-12.7 221.02-11.2L221.02-11.2 221.02-3.45Q220.97-2.05 219.91-1.03 218.87 0 217.41 0L217.41 0ZM227.71-4.7L227.71 4.25 223.01 0 223.01-4.7 227.71-4.7ZM258.41 0L239.81 0 239.81-35 258.41-35 258.41-30.4 244.46-30.4 244.46-21.7 253.76-21.7 252.71-17.05 244.46-17.05 244.46-4.65 258.41-4.65 258.41 0ZM267.2 0L262.5 0 267.2-12.5 262.5-25 267.2-25 269.56-18.75 271.9-25 276.56-25 271.9-12.5 276.56 0 271.9 0 269.56-6.25 267.2 0ZM283.75 12.5L279.05 12.5 279.05-25 289.5-25Q291.05-25 292.1-23.95 293.15-22.9 293.15-21.35L293.15-21.35 293.15-3.65Q293.15-2.1 292.1-1.05 291.05 0 289.5 0L289.5 0 283.75 0 283.75 12.5ZM283.75-20.3L283.75-4.7 286.65-4.7Q287.35-4.7 287.9-5.25 288.45-5.8 288.45-6.5L288.45-6.5 288.45-18.45Q288.45-19.3 287.9-19.8 287.35-20.3 286.65-20.3L286.65-20.3 283.75-20.3ZM310.25 0L299.8 0Q298.3 0 297.23-1.05 296.15-2.1 296.15-3.65L296.15-3.65 296.15-11.2Q296.15-12.7 297.23-13.78 298.3-14.85 299.8-14.85L299.8-14.85 303.7-14.85Q304.5-14.85 305.03-15.38 305.55-15.9 305.55-16.65L305.55-16.65 305.55-18.5Q305.55-19.25 305.03-19.78 304.5-20.3 303.7-20.3L303.7-20.3 298.3-20.3 299.35-25 306.6-25Q308.1-25 309.18-23.93 310.25-22.85 310.25-21.35L310.25-21.35 310.25 0ZM302.65-4.7L302.65-4.7 305.55-4.7 305.55-10.15 302.65-10.15Q301.9-10.15 301.38-9.63 300.85-9.1 300.85-8.35L300.85-8.35 300.85-6.5Q300.85-5.75 301.38-5.23 301.9-4.7 302.65-4.7ZM317.65 0L312.95 0 312.95-25 323.4-25Q324.85-25 325.95-23.95 327.05-22.9 327.05-21.4L327.05-21.4 327.05 0 322.35 0 322.35-18.5Q322.35-19.3 321.8-19.8 321.25-20.3 320.55-20.3L320.55-20.3 317.65-20.3 317.65 0ZM343.85 0L333.4 0Q331.85 0 330.8-1.05 329.75-2.1 329.75-3.65L329.75-3.65 329.75-21.35Q329.75-22.9 330.8-23.95 331.85-25 333.4-25L333.4-25 339.15-25 339.15-36.4 343.85-37.5 343.85 0ZM336.25-4.7L336.25-4.7 339.15-4.7 339.15-20.3 336.25-20.3Q335.55-20.3 335-19.8 334.45-19.3 334.45-18.5L334.45-18.5 334.45-6.5Q334.45-5.8 335-5.25 335.55-4.7 336.25-4.7ZM351.54-32.8L346.84-31.7 346.84-36.4 351.54-37.5 351.54-32.8ZM351.64 0L346.94 0 346.94-23.9 351.64-25 351.64 0ZM359.54 0L354.84 0 354.84-25 365.29-25Q366.74-25 367.84-23.95 368.94-22.9 368.94-21.4L368.94-21.4 368.94 0 364.24 0 364.24-18.5Q364.24-19.3 363.69-19.8 363.14-20.3 362.44-20.3L362.44-20.3 359.54-20.3 359.54 0ZM382.59 12.5L375.79 12.5Q374.34 12.5 373.24 11.45 372.14 10.4 372.14 8.85L372.14 8.85 372.14 3.4 376.84 4.5 376.84 6Q376.84 6.7 377.39 7.25 377.94 7.8 378.64 7.8L378.64 7.8 379.74 7.8Q380.54 7.8 381.04 7.25 381.54 6.7 381.54 6L381.54 6 381.54 0 375.79 0Q374.34 0 373.24-1.05 372.14-2.1 372.14-3.65L372.14-3.65 372.14-21.35Q372.14-22.9 373.24-23.95 374.34-25 375.79-25L375.79-25 386.24-25 386.24 8.85Q386.24 10.4 385.19 11.45 384.14 12.5 382.59 12.5L382.59 12.5ZM378.64-4.7L378.64-4.7 379.74-4.7Q380.54-4.7 381.04-5.25 381.54-5.8 381.54-6.5L381.54-6.5 381.54-20.3 378.64-20.3Q377.94-20.3 377.39-19.8 376.84-19.3 376.84-18.5L376.84-18.5 376.84-6.5Q376.84-5.8 377.39-5.25 377.94-4.7 378.64-4.7ZM401.98 0L397.33 0 397.33-35 401.98-35 401.98-21.7 411.28-21.7 411.28-35 415.88-35 415.88 0 411.28 0 411.28-17.05 401.98-17.05 401.98 0ZM431.83 0L425.03 0Q423.48 0 422.43-1.07 421.38-2.15 421.38-3.65L421.38-3.65 421.38-21.35Q421.38-22.85 422.43-23.93 423.48-25 425.03-25L425.03-25 431.83-25Q433.33-25 434.38-23.93 435.43-22.85 435.43-21.35L435.43-21.35 435.43-3.65Q435.43-2.15 434.38-1.07 433.33 0 431.83 0L431.83 0ZM427.88-4.7L427.88-4.7 428.93-4.7Q429.68-4.7 430.23-5.23 430.78-5.75 430.78-6.5L430.78-6.5 430.78-18.5Q430.78-19.25 430.23-19.78 429.68-20.3 428.93-20.3L428.93-20.3 427.88-20.3Q427.13-20.3 426.61-19.78 426.08-19.25 426.08-18.5L426.08-18.5 426.08-6.5Q426.08-5.75 426.61-5.23 427.13-4.7 427.88-4.7ZM442.68 0L437.98 0 437.98-25 448.43-25Q449.93-25 451-23.93 452.08-22.85 452.08-21.35L452.08-21.35 452.08-15.9 447.38-16.95 447.38-18.45Q447.38-19.2 446.85-19.75 446.33-20.3 445.58-20.3L445.58-20.3 442.68-20.3 442.68 0ZM459.28-32.8L454.58-31.7 454.58-36.4 459.28-37.5 459.28-32.8ZM459.38 0L454.68 0 454.68-23.9 459.38-25 459.38 0ZM476.97 0L462.87 0 470.47-20.3 462.87-20.3 462.87-25 476.97-25 469.27-4.7 476.97-4.7 476.97 0ZM490.82 0L484.02 0Q482.47 0 481.42-1.07 480.37-2.15 480.37-3.65L480.37-3.65 480.37-21.35Q480.37-22.85 481.42-23.93 482.47-25 484.02-25L484.02-25 490.82-25Q492.32-25 493.37-23.93 494.42-22.85 494.42-21.35L494.42-21.35 494.42-3.65Q494.42-2.15 493.37-1.07 492.32 0 490.82 0L490.82 0ZM486.87-4.7L486.87-4.7 487.92-4.7Q488.67-4.7 489.22-5.23 489.77-5.75 489.77-6.5L489.77-6.5 489.77-18.5Q489.77-19.25 489.22-19.78 488.67-20.3 487.92-20.3L487.92-20.3 486.87-20.3Q486.12-20.3 485.6-19.78 485.07-19.25 485.07-18.5L485.07-18.5 485.07-6.5Q485.07-5.75 485.6-5.23 486.12-4.7 486.87-4.7ZM502.37 0L497.67 0 497.67-25 508.12-25Q509.57-25 510.67-23.95 511.77-22.9 511.77-21.4L511.77-21.4 511.77 0 507.07 0 507.07-18.5Q507.07-19.3 506.52-19.8 505.97-20.3 505.27-20.3L505.27-20.3 502.37-20.3 502.37 0ZM525.42 0L518.57 0Q517.07 0 516.02-1.07 514.97-2.15 514.97-3.65L514.97-3.65 514.97-7.8 519.62-7.8 519.62-6.5Q519.62-5.75 520.17-5.23 520.72-4.7 521.47-4.7L521.47-4.7 522.52-4.7Q523.27-4.7 523.79-5.23 524.32-5.75 524.32-6.5L524.32-6.5 524.32-8.35Q524.32-9.1 523.79-9.63 523.27-10.15 522.52-10.15L522.52-10.15 518.57-10.15Q517.07-10.15 516.02-11.23 514.97-12.3 514.97-13.8L514.97-13.8 514.97-21.35Q514.97-22.85 516.02-23.93 517.07-25 518.57-25L518.57-25 525.42-25Q526.92-25 527.97-23.93 529.02-22.85 529.02-21.35L529.02-21.35 529.02-17.2 524.32-17.2 524.32-18.5Q524.32-19.25 523.79-19.78 523.27-20.3 522.52-20.3L522.52-20.3 521.47-20.3Q520.72-20.3 520.17-19.78 519.62-19.25 519.62-18.5L519.62-18.5 519.62-16.65Q519.62-15.9 520.17-15.38 520.72-14.85 521.47-14.85L521.47-14.85 525.42-14.85Q526.92-14.85 527.97-13.78 529.02-12.7 529.02-11.2L529.02-11.2 529.02-3.45Q528.97-2.05 527.92-1.03 526.87 0 525.42 0L525.42 0Z" opacity="1" transform="matrix(1,0,0,1,0,0)" fill="#61777f" class="slogan-text-1" data-fill-palette-color="secondary" id="text-1"></path></svg></g></svg></g></svg></g></svg></g><g></g></svg></g><defs></defs></svg><rect width="395.52" height="102.65484318834277" fill="none" stroke="none" visibility="hidden"></rect></g></svg></g></svg>