<svg version="1.1" id="Layer_1" xmlns="http://www.w3.org/2000/svg" xmlns:xlink="http://www.w3.org/1999/xlink" x="0px" y="0px"
	 width="100%" viewBox="0 0 1200 1200" enable-background="new 0 0 1200 1200" xml:space="preserve">
<path fill="#303841" opacity="1.000000" stroke="none" 
	d="
M554.000000,1201.000000 
	C369.333344,1201.000000 185.166672,1201.000000 1.000000,1201.000000 
	C1.000000,801.000000 1.000000,401.000000 1.000000,1.000000 
	C401.000000,1.000000 801.000000,1.000000 1201.000000,1.000000 
	C1201.000000,401.000000 1201.000000,801.000000 1201.000000,1201.000000 
	C985.500000,1201.000000 770.000000,1201.000000 554.000000,1201.000000 
M654.908752,324.643097 
	C638.219604,315.016235 621.482788,305.470245 604.887512,295.684204 
	C602.071594,294.023682 600.132507,293.940063 597.259888,295.605743 
	C546.388428,325.104218 495.606506,354.765991 444.359833,383.600800 
	C434.877014,388.936493 431.660919,394.513855 431.777283,405.373383 
	C432.405853,464.029205 432.047760,522.695374 432.187531,581.357605 
	C432.192474,583.432617 433.264008,586.519836 434.829651,587.429688 
	C488.972260,618.894714 543.246582,650.132996 597.443481,681.504883 
	C600.112610,683.049927 601.956177,683.027954 604.646301,681.469238 
	C658.691101,650.153931 712.817993,618.980286 766.848877,587.641052 
	C768.324585,586.785034 769.794373,584.412048 769.798340,582.742981 
	C769.947937,519.914429 769.947937,457.085358 769.798340,394.256775 
	C769.794373,392.587769 768.323730,390.217285 766.847961,389.359772 
	C729.793274,367.828766 692.645813,346.457245 654.908752,324.643097 
M739.728821,784.388733 
	C738.843262,781.244019 736.567505,780.072021 733.620605,780.749451 
	C730.515930,781.463196 729.839172,783.944580 729.848511,786.914429 
	C729.912537,807.237610 729.881653,827.561096 729.881348,847.884521 
	C729.881348,849.806763 729.881348,851.729065 729.881348,854.788086 
	C727.891846,852.534302 726.642334,851.291382 725.589050,849.900024 
	C709.232178,828.289551 692.876343,806.677979 676.592896,785.012146 
	C674.475891,782.195496 672.421997,779.682739 668.425049,780.905762 
	C664.315308,782.163208 664.904175,785.665649 664.900330,788.752441 
	C664.867371,814.906311 664.878357,841.060181 664.890503,867.214050 
	C664.891113,868.542847 664.612122,870.099792 665.192871,871.145325 
	C666.001526,872.601257 667.392639,874.525818 668.729431,874.693298 
	C670.361572,874.897888 672.687927,873.920227 673.797668,872.651917 
	C674.810303,871.494690 674.878540,869.267578 674.884644,867.510376 
	C674.952393,847.853516 674.927551,828.196411 674.927612,808.539368 
	C674.927612,806.289612 674.927551,804.039917 674.927551,800.518677 
	C676.300842,802.298645 676.875977,803.030212 677.436646,803.772583 
	C694.273987,826.067322 711.130127,848.347961 727.919678,870.678589 
	C729.926880,873.348267 731.967957,875.811890 735.673950,874.747620 
	C739.703552,873.590393 739.948853,870.197571 739.942871,866.693176 
	C739.896851,839.540161 739.893005,812.387207 739.728821,784.388733 
M808.130859,865.053711 
	C790.512817,869.982422 773.530212,858.087708 775.518066,841.921509 
	C776.631409,841.921509 777.778870,841.922241 778.926331,841.921509 
	C793.073608,841.912842 807.220947,841.930908 821.368042,841.881592 
	C826.956299,841.862122 828.920959,840.201721 829.037354,835.681335 
	C829.573303,814.871033 808.071655,798.430664 788.228333,804.783813 
	C773.198120,809.596008 766.159058,820.817505 764.331421,836.020203 
	C762.508972,851.178833 769.763916,865.952332 782.569702,872.464478 
	C796.269653,879.431152 812.587402,876.966614 823.661743,866.401001 
	C826.118591,864.057068 827.698059,861.554321 825.101624,858.727783 
	C822.474365,855.867615 819.813782,857.477173 817.210205,859.470215 
	C814.602112,861.466736 811.690979,863.067322 808.130859,865.053711 
M588.965515,823.977661 
	C589.307739,827.102966 589.912659,830.225464 589.945374,833.354004 
	C590.067322,845.010254 589.971802,856.668640 590.023010,868.325928 
	C590.039551,872.082886 591.438660,875.076721 595.737305,874.900818 
	C599.728943,874.737427 600.872681,871.744934 600.912292,868.254700 
	C600.967041,863.425842 601.012268,858.593994 600.910889,853.766602 
	C600.697998,843.626221 600.981140,833.427307 599.955322,823.365112 
	C598.842041,812.445129 592.227966,805.534241 583.366638,804.065979 
	C572.390686,802.247314 562.982056,805.096375 555.339294,813.351013 
	C554.781006,813.954041 553.980774,814.332947 553.068542,814.973694 
	C552.971741,813.994080 552.865356,813.499207 552.883423,813.009033 
	C553.031921,808.991333 552.338867,805.214661 547.356018,805.325439 
	C542.510864,805.433105 541.907593,809.085388 541.947205,813.162170 
	C542.070129,825.817749 541.989197,838.475281 541.993469,851.132019 
	C541.995483,857.293701 541.718689,863.478333 542.199463,869.603027 
	C542.342773,871.428284 544.313843,873.925598 546.025574,874.563293 
	C547.489258,875.108643 550.318359,873.928650 551.548584,872.594421 
	C552.689636,871.356689 552.845642,868.908020 552.863647,866.987183 
	C552.975891,855.015991 552.771057,843.040527 552.986694,831.072144 
	C553.132812,822.963257 559.706543,815.848206 568.085205,814.063660 
	C578.372742,811.872559 584.548523,814.596436 588.965515,823.977661 
M373.374420,808.457947 
	C371.172668,807.472656 368.549347,805.263062 366.884247,805.836365 
	C365.113983,806.445923 363.368286,809.611450 363.165894,811.804321 
	C362.647705,817.419067 362.991913,823.113403 362.992218,828.775940 
	C362.992981,842.099548 362.845093,855.426575 363.155396,868.742981 
	C363.202148,870.750183 364.972260,873.422852 366.727020,874.443542 
	C367.954254,875.157410 371.142059,874.152771 372.306396,872.872070 
	C373.546661,871.507935 373.825653,868.919373 373.849457,866.857605 
	C373.987671,854.886353 373.710236,842.907471 374.001038,830.941589 
	C374.241089,821.062256 383.630188,813.362610 394.660309,813.439087 
	C404.946930,813.510376 410.739929,819.624329 410.986542,830.683228 
	C411.016235,832.014954 410.992035,833.347900 410.992065,834.680237 
	C410.992371,845.505615 411.001404,856.331055 410.987915,867.156433 
	C410.983002,871.115051 411.611389,874.977966 416.568481,874.875427 
	C421.501312,874.773438 421.962830,870.837463 421.934601,866.925354 
	C421.905762,862.928528 421.989838,858.930115 421.916382,854.934448 
	C421.726807,844.622742 422.017059,834.264099 421.103760,824.014404 
	C420.147095,813.278625 414.096710,806.135742 405.503357,804.310059 
	C394.680237,802.010681 385.073181,804.509949 377.123596,812.491516 
	C376.258270,813.360291 375.303101,814.139587 374.080048,815.238525 
	C373.914337,812.831726 373.789154,811.013550 373.374420,808.457947 
M485.997040,811.508301 
	C485.741058,807.458252 483.182190,806.199524 479.574799,806.202820 
	C475.475281,806.206482 471.375793,806.203613 466.931885,806.203613 
	C466.931885,803.819031 466.932526,802.020325 466.931732,800.221680 
	C466.925446,786.010925 468.263306,784.883545 482.120605,785.975830 
	C483.932373,786.118591 487.292450,784.423706 487.482239,783.199585 
	C487.773102,781.323730 486.489136,778.075500 484.902069,777.227051 
	C477.002106,773.003845 459.725983,775.567322 457.077026,788.767090 
	C455.953705,794.364685 456.049255,800.206787 455.568817,806.212769 
	C452.820496,806.212769 450.173309,806.115417 447.536316,806.237793 
	C444.362000,806.385132 441.936005,807.718201 442.052155,811.296265 
	C442.163483,814.724976 444.241547,816.256958 447.664154,816.138550 
	C450.280975,816.047974 452.903381,816.120544 456.068115,816.120544 
	C456.068115,818.340149 456.068115,820.119812 456.068115,821.899475 
	C456.068207,837.209167 456.086304,852.518860 456.056000,867.828491 
	C456.048157,871.778564 457.127838,875.039734 461.729187,874.894165 
	C466.013275,874.758606 466.949127,871.540100 466.941650,867.845947 
	C466.915802,855.032471 466.931824,842.218872 466.931885,829.405334 
	C466.931885,825.126526 466.931885,820.847717 466.931885,816.122498 
	C471.577789,816.122498 475.700592,816.020874 479.815552,816.156372 
	C482.816772,816.255249 485.042480,815.440613 485.997040,811.508301 
M844.720520,813.943420 
	C848.631775,814.793396 852.543091,815.643433 856.989075,816.609619 
	C856.989075,817.766724 856.988403,819.399475 856.989197,821.032288 
	C856.995544,834.195984 856.825439,847.362793 857.061707,860.522339 
	C857.270630,872.163818 869.120972,879.183899 879.004089,873.495605 
	C880.640076,872.554016 881.976624,869.616394 881.957886,867.615112 
	C881.928406,864.467102 879.125671,864.675964 876.652466,865.009033 
	C869.997131,865.905396 867.872620,864.110657 867.826294,857.252808 
	C867.738525,844.256287 867.797607,831.258728 867.825989,818.261658 
	C867.827637,817.490845 868.096436,816.720581 868.296509,815.652954 
	C871.623840,815.652954 874.739014,815.578735 877.848999,815.672241 
	C881.531372,815.783081 884.863464,815.107910 884.895691,810.654541 
	C884.928467,806.130737 881.400330,805.598938 877.851196,805.568665 
	C874.600891,805.540894 871.350220,805.562805 867.795227,805.562805 
	C867.795227,800.996948 867.869629,797.185425 867.772827,793.378235 
	C867.687866,790.036560 866.333618,787.310181 862.624268,787.298828 
	C858.889832,787.287354 856.914307,789.502502 856.977478,793.391663 
	C857.041748,797.351318 856.991699,801.312805 856.991699,805.561829 
	C854.158875,805.561829 851.833252,805.490173 849.513611,805.576355 
	C844.203918,805.773560 842.663818,808.072021 844.720520,813.943420 
M335.084412,832.500000 
	C335.065094,817.533203 335.014923,802.566345 335.048096,787.599670 
	C335.056396,783.844177 334.123993,780.812012 329.784821,780.651123 
	C325.188049,780.480713 323.884491,783.505493 323.886169,787.519592 
	C323.897430,814.327454 323.899078,841.135315 323.889343,867.943176 
	C323.887909,871.937378 325.174316,875.082214 329.730042,874.886169 
	C333.886078,874.707275 335.098755,871.751465 335.071320,867.924316 
	C334.988953,856.449524 335.023132,844.973999 335.084412,832.500000 
M637.423096,813.830566 
	C637.423035,813.498291 637.427368,813.165894 637.422241,812.833679 
	C637.325745,806.528320 635.641479,803.730652 631.811462,804.151489 
	C626.628723,804.721069 626.532654,808.633179 626.548035,812.685547 
	C626.615051,830.296753 626.567444,847.908264 626.590942,865.519714 
	C626.593384,867.338623 626.204712,869.520691 627.048157,870.884399 
	C628.110107,872.601440 630.248169,874.686890 631.931946,874.695679 
	C633.627808,874.704590 635.799316,872.659973 636.891113,870.956665 
	C637.753540,869.611267 637.403259,867.419250 637.406311,865.602966 
	C637.434692,848.656128 637.423096,831.709229 637.423096,813.830566 
M516.423096,833.500488 
	C516.411194,825.669922 516.461792,817.838440 516.358582,810.009094 
	C516.313171,806.565674 514.574829,804.104126 510.946899,804.181030 
	C507.433533,804.255310 505.625885,806.522278 505.582458,810.079041 
	C505.576355,810.578796 505.577332,811.078735 505.577332,811.578552 
	C505.577118,829.906128 505.571320,848.233704 505.589386,866.561279 
	C505.590698,867.886047 505.282471,869.590393 505.962006,870.455505 
	C507.337219,872.206421 509.308533,874.681580 511.002777,874.657532 
	C512.732849,874.632812 514.725586,872.185059 516.018127,870.379272 
	C516.756287,869.348145 516.406860,867.481445 516.410278,865.990662 
	C516.434448,855.493958 516.423035,844.997253 516.423096,833.500488 
M627.788574,783.061401 
	C626.940735,784.609253 625.174316,786.344788 625.443909,787.664185 
	C625.944092,790.110962 627.201294,793.759033 628.930725,794.276855 
	C631.450989,795.031555 635.845398,794.397827 637.258240,792.620850 
	C638.692993,790.816345 638.610718,785.900818 637.103271,784.203064 
	C635.625549,782.538879 631.517029,783.210449 627.788574,783.061401 
M510.591705,795.009949 
	C516.092285,794.567932 517.883728,792.971436 517.719727,788.304871 
	C517.595642,784.775940 516.150696,782.231995 512.109436,782.141968 
	C508.343292,782.058044 504.972961,782.754211 504.382202,787.235291 
	C503.847321,791.292603 504.901978,794.549805 510.591705,795.009949 
z"/>
<path fill="#F1F1F1" opacity="1.000000" stroke="none" 
	d="
M655.211792,324.850342 
	C692.645813,346.457245 729.793274,367.828766 766.847961,389.359772 
	C768.323730,390.217285 769.794373,392.587769 769.798340,394.256775 
	C769.947937,457.085358 769.947937,519.914429 769.798340,582.742981 
	C769.794373,584.412048 768.324585,586.785034 766.848877,587.641052 
	C712.817993,618.980286 658.691101,650.153931 604.646301,681.469238 
	C601.956177,683.027954 600.112610,683.049927 597.443481,681.504883 
	C543.246582,650.132996 488.972260,618.894714 434.829651,587.429688 
	C433.264008,586.519836 432.192474,583.432617 432.187531,581.357605 
	C432.047760,522.695374 432.405853,464.029205 431.777283,405.373383 
	C431.660919,394.513855 434.877014,388.936493 444.359833,383.600800 
	C495.606506,354.765991 546.388428,325.104218 597.259888,295.605743 
	C600.132507,293.940063 602.071594,294.023682 604.887512,295.684204 
	C621.482788,305.470245 638.219604,315.016235 655.211792,324.850342 
M447.113739,524.500000 
	C447.113739,540.661682 447.180267,556.823853 447.052979,572.984497 
	C447.029816,575.925476 447.688049,577.642151 450.480743,579.247681 
	C499.576172,607.472961 548.594543,635.832703 597.572876,664.260864 
	C600.010925,665.675964 601.722107,665.853394 604.240906,664.390930 
	C653.218140,635.954834 702.242920,607.600525 751.320984,579.338928 
	C753.950439,577.824768 754.970886,576.305115 754.964966,573.202332 
	C754.857117,516.718628 754.873291,460.234650 754.926636,403.750763 
	C754.929199,401.049713 754.402893,399.406464 751.725342,397.866425 
	C702.343018,369.463470 653.068054,340.873749 603.684875,312.472137 
	C602.269592,311.658142 599.523376,311.785400 598.060120,312.626343 
	C549.104248,340.761047 500.256775,369.084381 451.283478,397.188507 
	C447.812408,399.180481 447.031036,401.380585 447.041718,405.033966 
	C447.157074,444.522369 447.113739,484.011261 447.113739,524.500000 
z"/>
<path fill="#F0F0F0" opacity="1.000000" stroke="none" 
	d="
M739.802429,784.811462 
	C739.893005,812.387207 739.896851,839.540161 739.942871,866.693176 
	C739.948853,870.197571 739.703552,873.590393 735.673950,874.747620 
	C731.967957,875.811890 729.926880,873.348267 727.919678,870.678589 
	C711.130127,848.347961 694.273987,826.067322 677.436646,803.772583 
	C676.875977,803.030212 676.300842,802.298645 674.927551,800.518677 
	C674.927551,804.039917 674.927612,806.289612 674.927612,808.539368 
	C674.927551,828.196411 674.952393,847.853516 674.884644,867.510376 
	C674.878540,869.267578 674.810303,871.494690 673.797668,872.651917 
	C672.687927,873.920227 670.361572,874.897888 668.729431,874.693298 
	C667.392639,874.525818 666.001526,872.601257 665.192871,871.145325 
	C664.612122,870.099792 664.891113,868.542847 664.890503,867.214050 
	C664.878357,841.060181 664.867371,814.906311 664.900330,788.752441 
	C664.904175,785.665649 664.315308,782.163208 668.425049,780.905762 
	C672.421997,779.682739 674.475891,782.195496 676.592896,785.012146 
	C692.876343,806.677979 709.232178,828.289551 725.589050,849.900024 
	C726.642334,851.291382 727.891846,852.534302 729.881348,854.788086 
	C729.881348,851.729065 729.881348,849.806763 729.881348,847.884521 
	C729.881653,827.561096 729.912537,807.237610 729.848511,786.914429 
	C729.839172,783.944580 730.515930,781.463196 733.620605,780.749451 
	C736.567505,780.072021 738.843262,781.244019 739.802429,784.811462 
z"/>
<path fill="#F0F0F0" opacity="1.000000" stroke="none" 
	d="
M808.521729,864.947571 
	C811.690979,863.067322 814.602112,861.466736 817.210205,859.470215 
	C819.813782,857.477173 822.474365,855.867615 825.101624,858.727783 
	C827.698059,861.554321 826.118591,864.057068 823.661743,866.401001 
	C812.587402,876.966614 796.269653,879.431152 782.569702,872.464478 
	C769.763916,865.952332 762.508972,851.178833 764.331421,836.020203 
	C766.159058,820.817505 773.198120,809.596008 788.228333,804.783813 
	C808.071655,798.430664 829.573303,814.871033 829.037354,835.681335 
	C828.920959,840.201721 826.956299,841.862122 821.368042,841.881592 
	C807.220947,841.930908 793.073608,841.912842 778.926331,841.921509 
	C777.778870,841.922241 776.631409,841.921509 775.518066,841.921509 
	C773.530212,858.087708 790.512817,869.982422 808.521729,864.947571 
M813.469788,821.090698 
	C806.202881,813.767883 796.704590,811.465454 787.954834,815.346558 
	C780.830322,818.506775 776.842590,824.197998 775.582153,832.151367 
	C789.921326,832.151367 803.756104,832.151367 818.767212,832.151367 
	C816.911438,828.104980 815.429382,824.873474 813.469788,821.090698 
z"/>
<path fill="#F0F0F0" opacity="1.000000" stroke="none" 
	d="
M588.873779,823.584839 
	C584.548523,814.596436 578.372742,811.872559 568.085205,814.063660 
	C559.706543,815.848206 553.132812,822.963257 552.986694,831.072144 
	C552.771057,843.040527 552.975891,855.015991 552.863647,866.987183 
	C552.845642,868.908020 552.689636,871.356689 551.548584,872.594421 
	C550.318359,873.928650 547.489258,875.108643 546.025574,874.563293 
	C544.313843,873.925598 542.342773,871.428284 542.199463,869.603027 
	C541.718689,863.478333 541.995483,857.293701 541.993469,851.132019 
	C541.989197,838.475281 542.070129,825.817749 541.947205,813.162170 
	C541.907593,809.085388 542.510864,805.433105 547.356018,805.325439 
	C552.338867,805.214661 553.031921,808.991333 552.883423,813.009033 
	C552.865356,813.499207 552.971741,813.994080 553.068542,814.973694 
	C553.980774,814.332947 554.781006,813.954041 555.339294,813.351013 
	C562.982056,805.096375 572.390686,802.247314 583.366638,804.065979 
	C592.227966,805.534241 598.842041,812.445129 599.955322,823.365112 
	C600.981140,833.427307 600.697998,843.626221 600.910889,853.766602 
	C601.012268,858.593994 600.967041,863.425842 600.912292,868.254700 
	C600.872681,871.744934 599.728943,874.737427 595.737305,874.900818 
	C591.438660,875.076721 590.039551,872.082886 590.023010,868.325928 
	C589.971802,856.668640 590.067322,845.010254 589.945374,833.354004 
	C589.912659,830.225464 589.307739,827.102966 588.873779,823.584839 
z"/>
<path fill="#F0F0F0" opacity="1.000000" stroke="none" 
	d="
M373.519196,808.826660 
	C373.789154,811.013550 373.914337,812.831726 374.080048,815.238525 
	C375.303101,814.139587 376.258270,813.360291 377.123596,812.491516 
	C385.073181,804.509949 394.680237,802.010681 405.503357,804.310059 
	C414.096710,806.135742 420.147095,813.278625 421.103760,824.014404 
	C422.017059,834.264099 421.726807,844.622742 421.916382,854.934448 
	C421.989838,858.930115 421.905762,862.928528 421.934601,866.925354 
	C421.962830,870.837463 421.501312,874.773438 416.568481,874.875427 
	C411.611389,874.977966 410.983002,871.115051 410.987915,867.156433 
	C411.001404,856.331055 410.992371,845.505615 410.992065,834.680237 
	C410.992035,833.347900 411.016235,832.014954 410.986542,830.683228 
	C410.739929,819.624329 404.946930,813.510376 394.660309,813.439087 
	C383.630188,813.362610 374.241089,821.062256 374.001038,830.941589 
	C373.710236,842.907471 373.987671,854.886353 373.849457,866.857605 
	C373.825653,868.919373 373.546661,871.507935 372.306396,872.872070 
	C371.142059,874.152771 367.954254,875.157410 366.727020,874.443542 
	C364.972260,873.422852 363.202148,870.750183 363.155396,868.742981 
	C362.845093,855.426575 362.992981,842.099548 362.992218,828.775940 
	C362.991913,823.113403 362.647705,817.419067 363.165894,811.804321 
	C363.368286,809.611450 365.113983,806.445923 366.884247,805.836365 
	C368.549347,805.263062 371.172668,807.472656 373.519196,808.826660 
z"/>
<path fill="#EFEFEF" opacity="1.000000" stroke="none" 
	d="
M485.956970,811.911499 
	C485.042480,815.440613 482.816772,816.255249 479.815552,816.156372 
	C475.700592,816.020874 471.577789,816.122498 466.931885,816.122498 
	C466.931885,820.847717 466.931885,825.126526 466.931885,829.405334 
	C466.931824,842.218872 466.915802,855.032471 466.941650,867.845947 
	C466.949127,871.540100 466.013275,874.758606 461.729187,874.894165 
	C457.127838,875.039734 456.048157,871.778564 456.056000,867.828491 
	C456.086304,852.518860 456.068207,837.209167 456.068115,821.899475 
	C456.068115,820.119812 456.068115,818.340149 456.068115,816.120544 
	C452.903381,816.120544 450.280975,816.047974 447.664154,816.138550 
	C444.241547,816.256958 442.163483,814.724976 442.052155,811.296265 
	C441.936005,807.718201 444.362000,806.385132 447.536316,806.237793 
	C450.173309,806.115417 452.820496,806.212769 455.568817,806.212769 
	C456.049255,800.206787 455.953705,794.364685 457.077026,788.767090 
	C459.725983,775.567322 477.002106,773.003845 484.902069,777.227051 
	C486.489136,778.075500 487.773102,781.323730 487.482239,783.199585 
	C487.292450,784.423706 483.932373,786.118591 482.120605,785.975830 
	C468.263306,784.883545 466.925446,786.010925 466.931732,800.221680 
	C466.932526,802.020325 466.931885,803.819031 466.931885,806.203613 
	C471.375793,806.203613 475.475281,806.206482 479.574799,806.202820 
	C483.182190,806.199524 485.741058,807.458252 485.956970,811.911499 
z"/>
<path fill="#EFEFEF" opacity="1.000000" stroke="none" 
	d="
M844.465881,813.652100 
	C842.663818,808.072021 844.203918,805.773560 849.513611,805.576355 
	C851.833252,805.490173 854.158875,805.561829 856.991699,805.561829 
	C856.991699,801.312805 857.041748,797.351318 856.977478,793.391663 
	C856.914307,789.502502 858.889832,787.287354 862.624268,787.298828 
	C866.333618,787.310181 867.687866,790.036560 867.772827,793.378235 
	C867.869629,797.185425 867.795227,800.996948 867.795227,805.562805 
	C871.350220,805.562805 874.600891,805.540894 877.851196,805.568665 
	C881.400330,805.598938 884.928467,806.130737 884.895691,810.654541 
	C884.863464,815.107910 881.531372,815.783081 877.848999,815.672241 
	C874.739014,815.578735 871.623840,815.652954 868.296509,815.652954 
	C868.096436,816.720581 867.827637,817.490845 867.825989,818.261658 
	C867.797607,831.258728 867.738525,844.256287 867.826294,857.252808 
	C867.872620,864.110657 869.997131,865.905396 876.652466,865.009033 
	C879.125671,864.675964 881.928406,864.467102 881.957886,867.615112 
	C881.976624,869.616394 880.640076,872.554016 879.004089,873.495605 
	C869.120972,879.183899 857.270630,872.163818 857.061707,860.522339 
	C856.825439,847.362793 856.995544,834.195984 856.989197,821.032288 
	C856.988403,819.399475 856.989075,817.766724 856.989075,816.609619 
	C852.543091,815.643433 848.631775,814.793396 844.465881,813.652100 
z"/>
<path fill="#F2F2F2" opacity="1.000000" stroke="none" 
	d="
M335.048126,832.999390 
	C335.023132,844.973999 334.988953,856.449524 335.071320,867.924316 
	C335.098755,871.751465 333.886078,874.707275 329.730042,874.886169 
	C325.174316,875.082214 323.887909,871.937378 323.889343,867.943176 
	C323.899078,841.135315 323.897430,814.327454 323.886169,787.519592 
	C323.884491,783.505493 325.188049,780.480713 329.784821,780.651123 
	C334.123993,780.812012 335.056396,783.844177 335.048096,787.599670 
	C335.014923,802.566345 335.065094,817.533203 335.048126,832.999390 
z"/>
<path fill="#F2F2F2" opacity="1.000000" stroke="none" 
	d="
M637.423096,814.296509 
	C637.423096,831.709229 637.434692,848.656128 637.406311,865.602966 
	C637.403259,867.419250 637.753540,869.611267 636.891113,870.956665 
	C635.799316,872.659973 633.627808,874.704590 631.931946,874.695679 
	C630.248169,874.686890 628.110107,872.601440 627.048157,870.884399 
	C626.204712,869.520691 626.593384,867.338623 626.590942,865.519714 
	C626.567444,847.908264 626.615051,830.296753 626.548035,812.685547 
	C626.532654,808.633179 626.628723,804.721069 631.811462,804.151489 
	C635.641479,803.730652 637.325745,806.528320 637.422241,812.833679 
	C637.427368,813.165894 637.423035,813.498291 637.423096,814.296509 
z"/>
<path fill="#F2F2F2" opacity="1.000000" stroke="none" 
	d="
M516.423096,834.000488 
	C516.423035,844.997253 516.434448,855.493958 516.410278,865.990662 
	C516.406860,867.481445 516.756287,869.348145 516.018127,870.379272 
	C514.725586,872.185059 512.732849,874.632812 511.002777,874.657532 
	C509.308533,874.681580 507.337219,872.206421 505.962006,870.455505 
	C505.282471,869.590393 505.590698,867.886047 505.589386,866.561279 
	C505.571320,848.233704 505.577118,829.906128 505.577332,811.578552 
	C505.577332,811.078735 505.576355,810.578796 505.582458,810.079041 
	C505.625885,806.522278 507.433533,804.255310 510.946899,804.181030 
	C514.574829,804.104126 516.313171,806.565674 516.358582,810.009094 
	C516.461792,817.838440 516.411194,825.669922 516.423096,834.000488 
z"/>
<path fill="#EFEFEF" opacity="1.000000" stroke="none" 
	d="
M628.175903,782.959106 
	C631.517029,783.210449 635.625549,782.538879 637.103271,784.203064 
	C638.610718,785.900818 638.692993,790.816345 637.258240,792.620850 
	C635.845398,794.397827 631.450989,795.031555 628.930725,794.276855 
	C627.201294,793.759033 625.944092,790.110962 625.443909,787.664185 
	C625.174316,786.344788 626.940735,784.609253 628.175903,782.959106 
z"/>
<path fill="#EFEFEF" opacity="1.000000" stroke="none" 
	d="
M510.181641,795.006775 
	C504.901978,794.549805 503.847321,791.292603 504.382202,787.235291 
	C504.972961,782.754211 508.343292,782.058044 512.109436,782.141968 
	C516.150696,782.231995 517.595642,784.775940 517.719727,788.304871 
	C517.883728,792.971436 516.092285,794.567932 510.181641,795.006775 
z"/>
<path fill="#313942" opacity="1.000000" stroke="none" 
	d="
M447.113739,524.000000 
	C447.113739,484.011261 447.157074,444.522369 447.041718,405.033966 
	C447.031036,401.380585 447.812408,399.180481 451.283478,397.188507 
	C500.256775,369.084381 549.104248,340.761047 598.060120,312.626343 
	C599.523376,311.785400 602.269592,311.658142 603.684875,312.472137 
	C653.068054,340.873749 702.343018,369.463470 751.725342,397.866425 
	C754.402893,399.406464 754.929199,401.049713 754.926636,403.750763 
	C754.873291,460.234650 754.857117,516.718628 754.964966,573.202332 
	C754.970886,576.305115 753.950439,577.824768 751.320984,579.338928 
	C702.242920,607.600525 653.218140,635.954834 604.240906,664.390930 
	C601.722107,665.853394 600.010925,665.675964 597.572876,664.260864 
	C548.594543,635.832703 499.576172,607.472961 450.480743,579.247681 
	C447.688049,577.642151 447.029816,575.925476 447.052979,572.984497 
	C447.180267,556.823853 447.113739,540.661682 447.113739,524.000000 
M568.562927,434.259064 
	C567.390198,436.014618 566.617554,438.454620 564.978577,439.412811 
	C555.520508,444.942230 545.756287,449.951630 536.351379,455.565399 
	C534.512756,456.662872 532.917969,459.570801 532.735229,461.770325 
	C532.240112,467.728455 531.969971,473.828796 532.706055,479.736237 
	C533.765076,488.235138 531.009277,493.631836 522.694946,496.230194 
	C519.351379,497.275085 518.011536,499.808685 518.121155,503.563385 
	C518.383728,512.554565 518.301086,521.560120 518.154907,530.556580 
	C518.103088,533.744934 519.033142,535.723755 522.038574,537.277527 
	C530.149109,541.470520 538.194702,545.827454 545.993042,550.568420 
	C549.352478,552.610779 552.219299,552.896423 555.127197,550.578064 
	C557.832642,548.421143 560.032349,549.005005 562.779114,550.574951 
	C573.737488,556.838379 584.926025,562.703918 595.807190,569.094849 
	C599.658630,571.356934 602.604370,571.152954 606.343628,568.977112 
	C617.107788,562.713440 628.123901,556.884277 638.952209,550.728210 
	C641.787048,549.116516 644.180969,548.262695 647.043884,550.662659 
	C649.783875,552.959534 652.591492,552.532043 655.720886,550.697693 
	C663.884705,545.912354 672.347595,541.634216 680.471008,536.785034 
	C682.082092,535.823303 683.538208,533.262756 683.644409,531.360229 
	C684.024536,524.548950 682.996399,517.585449 683.986755,510.899658 
	C685.366516,501.585754 682.719788,495.625336 673.451294,492.953308 
	C670.075439,491.980103 669.237488,489.486511 669.353210,486.034912 
	C669.615417,478.211365 669.278748,470.368500 669.504883,462.542694 
	C669.609863,458.910431 668.382507,456.719940 665.138550,455.023499 
	C657.489563,451.023438 650.274292,446.086884 642.386169,442.681366 
	C634.449951,439.255127 631.619690,434.352112 633.774841,426.065094 
	C634.089233,424.856445 632.872803,422.450287 631.693176,421.780029 
	C622.898987,416.783356 614.021790,411.910339 604.958740,407.426605 
	C602.934631,406.425262 599.617920,406.212891 597.673950,407.187805 
	C589.071167,411.502045 580.637939,416.194427 572.417542,421.200226 
	C570.568481,422.326233 569.441895,425.135284 568.687134,427.403931 
	C568.087952,429.204590 568.564941,431.363281 568.562927,434.259064 
z"/>
<path fill="#384048" opacity="1.000000" stroke="none" 
	d="
M813.708496,821.366333 
	C815.429382,824.873474 816.911438,828.104980 818.767212,832.151367 
	C803.756104,832.151367 789.921326,832.151367 775.582153,832.151367 
	C776.842590,824.197998 780.830322,818.506775 787.954834,815.346558 
	C796.704590,811.465454 806.202881,813.767883 813.708496,821.366333 
z"/>
<path fill="#EFEFEF" opacity="1.000000" stroke="none" 
	d="
M568.563538,433.811035 
	C568.564941,431.363281 568.087952,429.204590 568.687134,427.403931 
	C569.441895,425.135284 570.568481,422.326233 572.417542,421.200226 
	C580.637939,416.194427 589.071167,411.502045 597.673950,407.187805 
	C599.617920,406.212891 602.934631,406.425262 604.958740,407.426605 
	C614.021790,411.910339 622.898987,416.783356 631.693176,421.780029 
	C632.872803,422.450287 634.089233,424.856445 633.774841,426.065094 
	C631.619690,434.352112 634.449951,439.255127 642.386169,442.681366 
	C650.274292,446.086884 657.489563,451.023438 665.138550,455.023499 
	C668.382507,456.719940 669.609863,458.910431 669.504883,462.542694 
	C669.278748,470.368500 669.615417,478.211365 669.353210,486.034912 
	C669.237488,489.486511 670.075439,491.980103 673.451294,492.953308 
	C682.719788,495.625336 685.366516,501.585754 683.986755,510.899658 
	C682.996399,517.585449 684.024536,524.548950 683.644409,531.360229 
	C683.538208,533.262756 682.082092,535.823303 680.471008,536.785034 
	C672.347595,541.634216 663.884705,545.912354 655.720886,550.697693 
	C652.591492,552.532043 649.783875,552.959534 647.043884,550.662659 
	C644.180969,548.262695 641.787048,549.116516 638.952209,550.728210 
	C628.123901,556.884277 617.107788,562.713440 606.343628,568.977112 
	C602.604370,571.152954 599.658630,571.356934 595.807190,569.094849 
	C584.926025,562.703918 573.737488,556.838379 562.779114,550.574951 
	C560.032349,549.005005 557.832642,548.421143 555.127197,550.578064 
	C552.219299,552.896423 549.352478,552.610779 545.993042,550.568420 
	C538.194702,545.827454 530.149109,541.470520 522.038574,537.277527 
	C519.033142,535.723755 518.103088,533.744934 518.154907,530.556580 
	C518.301086,521.560120 518.383728,512.554565 518.121155,503.563385 
	C518.011536,499.808685 519.351379,497.275085 522.694946,496.230194 
	C531.009277,493.631836 533.765076,488.235138 532.706055,479.736237 
	C531.969971,473.828796 532.240112,467.728455 532.735229,461.770325 
	C532.917969,459.570801 534.512756,456.662872 536.351379,455.565399 
	C545.756287,449.951630 555.520508,444.942230 564.978577,439.412811 
	C566.617554,438.454620 567.390198,436.014618 568.563538,433.811035 
M549.750061,456.283295 
	C547.860352,457.322144 545.878845,458.226959 544.108704,459.440216 
	C542.555359,460.504913 540.079529,461.854370 540.009583,463.183228 
	C539.613220,470.715027 539.817871,478.278503 539.817871,486.517700 
	C542.801025,484.971802 544.868347,483.445312 547.177551,482.836365 
	C549.336487,482.267059 552.143799,481.874329 553.988953,482.781067 
	C563.338440,487.375488 572.502808,492.354523 581.625366,497.392090 
	C582.670471,497.969208 583.651733,499.756958 583.642578,500.975555 
	C583.567200,510.922211 583.133301,520.866333 583.074646,530.812805 
	C583.056702,533.848877 582.178833,535.723206 579.396301,537.112549 
	C575.161011,539.227295 571.124023,541.739197 566.510254,544.362427 
	C576.901978,550.137512 586.716370,555.354004 596.262329,561.022644 
	C599.715393,563.073181 602.221985,563.118103 605.701050,561.042542 
	C615.270874,555.333435 625.123413,550.098267 635.536804,544.301086 
	C630.556213,541.521484 626.199036,539.439514 622.275879,536.729187 
	C620.693176,535.635803 619.200195,533.195190 619.139648,531.320190 
	C618.828186,521.673096 618.823181,512.004761 619.146301,502.358490 
	C619.208191,500.510101 620.792969,498.040436 622.408081,497.036194 
	C628.459717,493.273407 635.184448,490.518219 640.961548,486.408020 
	C647.850830,481.506531 654.168762,480.363190 661.016296,485.903748 
	C661.155701,486.016602 661.609253,485.741241 662.206482,485.557861 
	C662.206482,478.497253 662.255554,471.349030 662.151184,464.203033 
	C662.136292,463.184784 661.667542,461.670685 660.918823,461.242218 
	C652.058105,456.170685 643.104187,451.262054 633.422913,445.893768 
	C633.422913,449.776276 633.817139,452.796997 633.288391,455.646423 
	C632.917480,457.645325 631.753174,460.193756 630.143250,461.149872 
	C621.443665,466.316589 612.549316,471.168274 603.575134,475.846771 
	C602.139587,476.595184 599.650574,476.535553 598.180420,475.794434 
	C591.962769,472.660004 586.190125,468.539429 579.796082,465.883759 
	C571.232361,462.326965 566.598633,457.084778 568.448792,447.452057 
	C568.487366,447.251221 568.102905,446.969147 567.665039,446.397675 
	C561.952820,449.564087 556.183655,452.762024 549.750061,456.283295 
M597.594849,462.844421 
	C597.594666,457.369690 597.673645,451.892975 597.538147,446.421600 
	C597.504639,445.066650 597.188599,443.007202 596.299988,442.498535 
	C589.769287,438.759918 583.060059,435.332977 575.780029,431.475586 
	C575.780029,439.198975 575.743469,446.127686 575.825439,453.054962 
	C575.835938,453.939941 576.207825,455.263123 576.845642,455.629974 
	C583.481750,459.447174 590.206604,463.110077 597.391357,467.083771 
	C597.498230,465.287933 597.546143,464.481567 597.594849,462.844421 
M624.904846,455.913818 
	C625.300354,455.409424 626.035278,454.908447 626.040405,454.400146 
	C626.114746,447.008575 626.091431,439.615997 626.091431,431.508667 
	C618.970093,435.299255 612.425720,438.712830 605.979919,442.303619 
	C605.187500,442.745056 604.498779,444.126587 604.481689,445.085297 
	C604.356323,452.145294 604.413879,459.208527 604.413879,467.180908 
	C611.551514,463.258728 617.874817,459.784058 624.904846,455.913818 
M537.162537,537.345947 
	C540.272522,539.006836 543.382568,540.667725 547.005676,542.602661 
	C547.005676,534.980469 547.086182,528.325134 546.936096,521.675049 
	C546.906921,520.385376 546.345032,518.483582 545.405823,517.939270 
	C539.036011,514.247925 532.498962,510.845154 525.405090,507.019684 
	C525.405090,511.212280 525.843323,514.582642 525.322937,517.797913 
	C523.767578,527.406921 526.705872,534.130798 537.162537,537.345947 
M641.993225,539.589233 
	C643.806519,540.436584 645.619751,541.283875 647.892883,542.346069 
	C647.892883,534.838684 647.927979,528.188049 647.857422,521.538452 
	C647.846008,520.461365 647.709961,518.785034 647.048828,518.408203 
	C640.377319,514.605835 633.584351,511.016602 626.108521,506.980377 
	C626.108521,514.958801 625.978271,521.758057 626.226929,528.543457 
	C626.272461,529.784851 627.606873,531.378906 628.781982,532.106567 
	C632.866577,534.635864 637.142883,536.855530 641.993225,539.589233 
M568.473022,510.926544 
	C564.534058,513.056580 560.536255,515.088013 556.693542,517.379395 
	C555.601868,518.030334 554.262024,519.416687 554.228088,520.503052 
	C554.007202,527.580261 554.114563,534.667725 554.114563,542.770813 
	C561.527161,538.670105 568.156860,535.055176 574.704895,531.297974 
	C575.354919,530.925049 575.828857,529.688843 575.839783,528.846313 
	C575.929626,521.923096 575.890503,514.998230 575.890503,507.169464 
	C573.149353,508.576080 571.159851,509.597046 568.473022,510.926544 
M676.594238,510.340027 
	C676.484070,509.428986 676.373901,508.517975 676.220215,507.247345 
	C669.645630,510.733063 663.466492,513.905151 657.419250,517.311401 
	C656.333740,517.922852 655.141357,519.480713 655.106567,520.635071 
	C654.893616,527.698975 655.000061,534.772583 655.000061,542.678589 
	C662.087097,538.787537 668.492981,535.419373 674.700806,531.719116 
	C675.764832,531.084900 676.457031,529.051697 676.510376,527.634277 
	C676.716614,522.155457 676.594604,516.664368 676.594238,510.340027 
M616.181335,428.740326 
	C618.031982,427.666260 619.882690,426.592163 622.198303,425.248230 
	C615.468689,421.477173 609.033691,417.823120 602.531616,414.292633 
	C601.776672,413.882721 600.447754,413.783661 599.727173,414.173340 
	C593.146301,417.731842 586.641296,421.430634 579.731018,425.303131 
	C582.422607,426.778961 584.683167,427.607819 586.440308,429.050049 
	C596.193848,437.055542 605.826904,437.185059 616.181335,428.740326 
M533.993835,503.583740 
	C538.511841,506.010345 542.996216,508.503357 547.569946,510.819946 
	C548.814941,511.450500 550.692139,512.267090 551.661133,511.776825 
	C558.240112,508.447845 564.653503,504.791748 571.844788,500.843628 
	C564.667786,496.859436 558.370850,493.296936 551.984436,489.902924 
	C551.185242,489.478180 549.729675,489.601013 548.889221,490.051056 
	C542.558533,493.440613 536.305847,496.975677 529.556702,500.727722 
	C531.218933,501.788300 532.304016,502.480591 533.993835,503.583740 
M645.978882,509.579865 
	C648.087341,510.356781 650.757263,512.363342 652.208557,511.700806 
	C659.042114,508.581146 665.541565,504.729462 672.645264,500.875763 
	C665.772644,497.023651 659.721375,493.585175 653.609985,490.257141 
	C652.697327,489.760162 651.221741,489.253571 650.481567,489.646393 
	C643.847351,493.167847 637.319458,496.889740 630.103027,500.919739 
	C635.785339,504.004181 640.560425,506.596191 645.978882,509.579865 
z"/>
<path fill="#323A43" opacity="1.000000" stroke="none" 
	d="
M550.082275,456.121643 
	C556.183655,452.762024 561.952820,449.564087 567.665039,446.397675 
	C568.102905,446.969147 568.487366,447.251221 568.448792,447.452057 
	C566.598633,457.084778 571.232361,462.326965 579.796082,465.883759 
	C586.190125,468.539429 591.962769,472.660004 598.180420,475.794434 
	C599.650574,476.535553 602.139587,476.595184 603.575134,475.846771 
	C612.549316,471.168274 621.443665,466.316589 630.143250,461.149872 
	C631.753174,460.193756 632.917480,457.645325 633.288391,455.646423 
	C633.817139,452.796997 633.422913,449.776276 633.422913,445.893768 
	C643.104187,451.262054 652.058105,456.170685 660.918823,461.242218 
	C661.667542,461.670685 662.136292,463.184784 662.151184,464.203033 
	C662.255554,471.349030 662.206482,478.497253 662.206482,485.557861 
	C661.609253,485.741241 661.155701,486.016602 661.016296,485.903748 
	C654.168762,480.363190 647.850830,481.506531 640.961548,486.408020 
	C635.184448,490.518219 628.459717,493.273407 622.408081,497.036194 
	C620.792969,498.040436 619.208191,500.510101 619.146301,502.358490 
	C618.823181,512.004761 618.828186,521.673096 619.139648,531.320190 
	C619.200195,533.195190 620.693176,535.635803 622.275879,536.729187 
	C626.199036,539.439514 630.556213,541.521484 635.536804,544.301086 
	C625.123413,550.098267 615.270874,555.333435 605.701050,561.042542 
	C602.221985,563.118103 599.715393,563.073181 596.262329,561.022644 
	C586.716370,555.354004 576.901978,550.137512 566.510254,544.362427 
	C571.124023,541.739197 575.161011,539.227295 579.396301,537.112549 
	C582.178833,535.723206 583.056702,533.848877 583.074646,530.812805 
	C583.133301,520.866333 583.567200,510.922211 583.642578,500.975555 
	C583.651733,499.756958 582.670471,497.969208 581.625366,497.392090 
	C572.502808,492.354523 563.338440,487.375488 553.988953,482.781067 
	C552.143799,481.874329 549.336487,482.267059 547.177551,482.836365 
	C544.868347,483.445312 542.801025,484.971802 539.817871,486.517700 
	C539.817871,478.278503 539.613220,470.715027 540.009583,463.183228 
	C540.079529,461.854370 542.555359,460.504913 544.108704,459.440216 
	C545.878845,458.226959 547.860352,457.322144 550.082275,456.121643 
z"/>
<path fill="#373E47" opacity="1.000000" stroke="none" 
	d="
M597.594482,463.259827 
	C597.546143,464.481567 597.498230,465.287933 597.391357,467.083771 
	C590.206604,463.110077 583.481750,459.447174 576.845642,455.629974 
	C576.207825,455.263123 575.835938,453.939941 575.825439,453.054962 
	C575.743469,446.127686 575.780029,439.198975 575.780029,431.475586 
	C583.060059,435.332977 589.769287,438.759918 596.299988,442.498535 
	C597.188599,443.007202 597.504639,445.066650 597.538147,446.421600 
	C597.673645,451.892975 597.594666,457.369690 597.594482,463.259827 
z"/>
<path fill="#373E47" opacity="1.000000" stroke="none" 
	d="
M624.551514,456.111603 
	C617.874817,459.784058 611.551514,463.258728 604.413879,467.180908 
	C604.413879,459.208527 604.356323,452.145294 604.481689,445.085297 
	C604.498779,444.126587 605.187500,442.745056 605.979919,442.303619 
	C612.425720,438.712830 618.970093,435.299255 626.091431,431.508667 
	C626.091431,439.615997 626.114746,447.008575 626.040405,454.400146 
	C626.035278,454.908447 625.300354,455.409424 624.551514,456.111603 
z"/>
<path fill="#373E47" opacity="1.000000" stroke="none" 
	d="
M536.841614,537.160400 
	C526.705872,534.130798 523.767578,527.406921 525.322937,517.797913 
	C525.843323,514.582642 525.405090,511.212280 525.405090,507.019684 
	C532.498962,510.845154 539.036011,514.247925 545.405823,517.939270 
	C546.345032,518.483582 546.906921,520.385376 546.936096,521.675049 
	C547.086182,528.325134 547.005676,534.980469 547.005676,542.602661 
	C543.382568,540.667725 540.272522,539.006836 536.841614,537.160400 
z"/>
<path fill="#353D46" opacity="1.000000" stroke="none" 
	d="
M641.669800,539.391113 
	C637.142883,536.855530 632.866577,534.635864 628.781982,532.106567 
	C627.606873,531.378906 626.272461,529.784851 626.226929,528.543457 
	C625.978271,521.758057 626.108521,514.958801 626.108521,506.980377 
	C633.584351,511.016602 640.377319,514.605835 647.048828,518.408203 
	C647.709961,518.785034 647.846008,520.461365 647.857422,521.538452 
	C647.927979,528.188049 647.892883,534.838684 647.892883,542.346069 
	C645.619751,541.283875 643.806519,540.436584 641.669800,539.391113 
z"/>
<path fill="#353D46" opacity="1.000000" stroke="none" 
	d="
M568.821655,510.772278 
	C571.159851,509.597046 573.149353,508.576080 575.890503,507.169464 
	C575.890503,514.998230 575.929626,521.923096 575.839783,528.846313 
	C575.828857,529.688843 575.354919,530.925049 574.704895,531.297974 
	C568.156860,535.055176 561.527161,538.670105 554.114563,542.770813 
	C554.114563,534.667725 554.007202,527.580261 554.228088,520.503052 
	C554.262024,519.416687 555.601868,518.030334 556.693542,517.379395 
	C560.536255,515.088013 564.534058,513.056580 568.821655,510.772278 
z"/>
<path fill="#373E47" opacity="1.000000" stroke="none" 
	d="
M676.594482,510.758911 
	C676.594604,516.664368 676.716614,522.155457 676.510376,527.634277 
	C676.457031,529.051697 675.764832,531.084900 674.700806,531.719116 
	C668.492981,535.419373 662.087097,538.787537 655.000061,542.678589 
	C655.000061,534.772583 654.893616,527.698975 655.106567,520.635071 
	C655.141357,519.480713 656.333740,517.922852 657.419250,517.311401 
	C663.466492,513.905151 669.645630,510.733063 676.220215,507.247345 
	C676.373901,508.517975 676.484070,509.428986 676.594482,510.758911 
z"/>
<path fill="#353D46" opacity="1.000000" stroke="none" 
	d="
M615.842529,428.875000 
	C605.826904,437.185059 596.193848,437.055542 586.440308,429.050049 
	C584.683167,427.607819 582.422607,426.778961 579.731018,425.303131 
	C586.641296,421.430634 593.146301,417.731842 599.727173,414.173340 
	C600.447754,413.783661 601.776672,413.882721 602.531616,414.292633 
	C609.033691,417.823120 615.468689,421.477173 622.198303,425.248230 
	C619.882690,426.592163 618.031982,427.666260 615.842529,428.875000 
z"/>
<path fill="#353D46" opacity="1.000000" stroke="none" 
	d="
M533.691406,503.378326 
	C532.304016,502.480591 531.218933,501.788300 529.556702,500.727722 
	C536.305847,496.975677 542.558533,493.440613 548.889221,490.051056 
	C549.729675,489.601013 551.185242,489.478180 551.984436,489.902924 
	C558.370850,493.296936 564.667786,496.859436 571.844788,500.843628 
	C564.653503,504.791748 558.240112,508.447845 551.661133,511.776825 
	C550.692139,512.267090 548.814941,511.450500 547.569946,510.819946 
	C542.996216,508.503357 538.511841,506.010345 533.691406,503.378326 
z"/>
<path fill="#353D46" opacity="1.000000" stroke="none" 
	d="
M645.657227,509.384033 
	C640.560425,506.596191 635.785339,504.004181 630.103027,500.919739 
	C637.319458,496.889740 643.847351,493.167847 650.481567,489.646393 
	C651.221741,489.253571 652.697327,489.760162 653.609985,490.257141 
	C659.721375,493.585175 665.772644,497.023651 672.645264,500.875763 
	C665.541565,504.729462 659.042114,508.581146 652.208557,511.700806 
	C650.757263,512.363342 648.087341,510.356781 645.657227,509.384033 
z"/>
</svg>